<svg width="50" height="50" viewBox="0 0 50 50" fill="none" xmlns="http://www.w3.org/2000/svg">
<path d="M24.6538 14.7481C21.6765 7.1619 18.2173 2.54748 17.0887 1.15498C16.8856 0.904014 16.5163 0.869783 16.269 1.07728C16.0375 1.27151 15.9942 1.61017 16.1696 1.85651C18.4196 5.01728 22.8188 13.1857 22.8188 20.6707C22.8188 26.1521 21.0248 28.8898 21.0385 31.4192C21.0492 33.4182 22.6571 35.0386 24.654 35.0386C26.2237 35.0386 28.03 33.8254 28.3763 31.6067C28.7969 28.9123 27.6167 22.2977 24.6538 14.7481ZM32.3785 18.1944C31.344 18.1944 30.3677 18.6481 29.6998 19.4388C29.0417 20.2181 28.7615 21.2381 28.9313 22.2375C29.135 23.4356 29.5104 24.5194 29.9077 25.6671C30.52 27.435 31.1531 29.2631 31.1531 31.6556C31.1531 35.1623 28.4096 37.909 24.9071 37.909C21.4048 37.909 18.6615 35.1621 18.6615 31.6556C18.6615 29.3152 19.3331 27.5144 19.9827 25.7732C20.4235 24.5913 20.84 23.475 21.0477 22.2348C21.215 21.2367 20.9333 20.2179 20.2746 19.4398C19.6048 18.6484 18.6265 18.1946 17.5904 18.1946H0.384613V49.0584H49.6154V18.1944H32.3785ZM31.4358 20.905C31.671 20.6263 32.0146 20.4667 32.3785 20.4667H47.3431V27.1584C46.1048 27.3736 45.3438 27.9704 44.7088 28.4698C44.0379 28.9973 43.5529 29.3786 42.4806 29.3786C41.4096 29.3786 40.925 28.9975 40.2542 28.4702C39.4638 27.8488 38.4802 27.0754 36.6217 27.0754C34.8344 27.0754 33.8573 27.7911 33.0821 28.3984C32.8111 27.1088 32.4194 25.9763 32.0548 24.9238C31.689 23.8677 31.3435 22.87 31.1713 21.8573C31.0929 21.394 31.3035 21.0617 31.4358 20.905ZM17.5906 20.4667C17.9569 20.4667 18.3033 20.6275 18.5404 20.9077C18.6731 21.0646 18.8842 21.3967 18.8069 21.8592C18.635 22.8846 18.2556 23.9021 17.8538 24.979C17.465 26.0215 17.0471 27.1431 16.7577 28.4192C15.9781 27.8075 14.999 27.0752 13.1898 27.0752C11.3323 27.0752 10.349 27.8484 9.55884 28.47C8.88827 28.9973 8.40365 29.3784 7.3325 29.3784C6.26134 29.3784 5.77692 28.9973 5.10615 28.47C4.50346 27.9959 3.78692 27.4346 2.65711 27.1944V20.4667H17.5906ZM2.65673 46.7861V29.5679C3.03134 29.7304 3.33961 29.9715 3.70115 30.2559C4.49134 30.8775 5.47461 31.6507 7.33211 31.6507C9.18981 31.6507 10.1731 30.8775 10.9631 30.2559C11.6337 29.7286 12.1183 29.3475 13.1894 29.3475C14.2613 29.3475 14.7458 29.7282 15.4162 30.255C15.7104 30.4861 16.0294 30.7352 16.4081 30.9586C16.3969 31.1867 16.3892 31.4179 16.3892 31.6557C16.3892 36.4365 20.1308 40.1815 24.9071 40.1815C29.6837 40.1815 33.4252 36.4365 33.4252 31.6557C33.4252 31.4175 33.4181 31.1857 33.4079 30.9571C33.785 30.734 34.1031 30.4857 34.3963 30.2552C35.0669 29.7284 35.5513 29.3477 36.6217 29.3477C37.694 29.3477 38.1788 29.729 38.85 30.2565C39.6402 30.8779 40.6235 31.6509 42.4808 31.6509C44.3392 31.6509 45.3231 30.8775 46.1133 30.2559C46.5329 29.9261 46.8798 29.6534 47.3431 29.4956V46.7865H2.65673V46.7861Z" fill="white"/>
</svg>
