<svg width="16" height="16" viewBox="0 0 16 16" fill="none" xmlns="http://www.w3.org/2000/svg">
<g clip-path="url(#clip0_88_232)">
<path d="M4.05439 9.07789C3.68814 9.17602 3.34469 9.13253 3.02405 8.9474C2.7034 8.76228 2.49401 8.48659 2.39588 8.12035C2.29774 7.7541 2.34124 7.41065 2.52636 7.09001C2.71149 6.76936 2.98717 6.55997 3.35342 6.46184C3.71967 6.3637 4.06311 6.4072 4.38376 6.59232C4.7044 6.77745 4.91379 7.05313 5.01193 7.41938C5.11006 7.78563 5.06657 8.12907 4.88144 8.44972C4.69632 8.77036 4.42063 8.97975 4.05439 9.07789ZM5.84806 6.35418C5.48181 6.45231 5.13836 6.40882 4.81772 6.22369C4.49707 6.03857 4.28768 5.76288 4.18955 5.39664C4.09141 5.03039 4.13491 4.68694 4.32003 4.3663C4.50516 4.04565 4.78084 3.83626 5.14709 3.73813C5.51333 3.63999 5.85678 3.68349 6.17743 3.86861C6.49807 4.05373 6.70746 4.32942 6.8056 4.69567C6.90373 5.06191 6.86024 5.40536 6.67511 5.72601C6.48999 6.04665 6.2143 6.25604 5.84806 6.35418ZM8.98731 5.51301C8.62107 5.61115 8.27762 5.56766 7.95698 5.38253C7.63633 5.19741 7.42694 4.92172 7.32881 4.55547C7.23067 4.18923 7.27417 3.84578 7.45929 3.52514C7.64441 3.20449 7.9201 2.9951 8.28635 2.89697C8.65259 2.79883 8.99604 2.84232 9.31668 3.02745C9.63733 3.21257 9.84672 3.48826 9.94486 3.85451C10.043 4.22075 9.9995 4.5642 9.81437 4.88484C9.62925 5.20549 9.35356 5.41488 8.98731 5.51301ZM11.9025 6.97498C11.5363 7.07312 11.1928 7.02962 10.8722 6.8445C10.5516 6.65937 10.3422 6.38369 10.244 6.01744C10.1459 5.6512 10.1894 5.30775 10.3745 4.9871C10.5596 4.66646 10.8353 4.45707 11.2016 4.35893C11.5678 4.2608 11.9113 4.30429 12.2319 4.48942C12.5525 4.67454 12.7619 4.95023 12.8601 5.31647C12.9582 5.68272 12.9147 6.02617 12.7296 6.34681C12.5445 6.66746 12.2688 6.87685 11.9025 6.97498ZM6.58122 14.0086C6.18882 14.1137 5.81932 14.0515 5.47275 13.8219C5.12617 13.5923 4.89797 13.2726 4.78816 12.8628C4.66666 12.4093 4.71512 11.9711 4.93356 11.548C5.152 11.125 5.36943 10.7069 5.58585 10.2938C5.7663 9.95569 5.90545 9.60297 6.00328 9.23562C6.10112 8.86827 6.2391 8.51119 6.41722 8.16438C6.54831 7.88625 6.72044 7.63919 6.9336 7.42318C7.14676 7.20718 7.40159 7.05946 7.69807 6.98001C7.99456 6.90057 8.28794 6.89673 8.57821 6.96849C8.86848 7.04026 9.13991 7.1638 9.3925 7.33912C9.71144 7.55274 10.0079 7.79575 10.2818 8.06816C10.5557 8.34057 10.8565 8.58242 11.1842 8.79371C11.5782 9.04329 11.9755 9.29666 12.3762 9.55379C12.7769 9.81093 13.038 10.1662 13.1595 10.6197C13.2693 11.0295 13.2316 11.4205 13.0462 11.7926C12.8609 12.1647 12.572 12.4034 12.1796 12.5085C11.7087 12.6347 11.2316 12.7204 10.7484 12.7658C10.2652 12.8111 9.7882 12.8969 9.31731 13.0231C8.84642 13.1493 8.39041 13.3135 7.94927 13.5158C7.50813 13.7181 7.05211 13.8824 6.58122 14.0086Z" fill="#333333"/>
</g>
<defs>
<clipPath id="clip0_88_232">
<rect width="13" height="13" fill="white" transform="translate(0 3.36475) rotate(-15)"/>
</clipPath>
</defs>
</svg>
