<svg width="45" height="45" viewBox="0 0 45 45" fill="none" xmlns="http://www.w3.org/2000/svg">
<path d="M35.6292 0C38.2142 0.0171806 40.4221 0.925329 42.253 2.72445C44.0843 4.52401 45 6.69956 45 9.2511C45 9.70176 44.9708 10.3176 44.9123 11.0987C44.8543 11.8797 44.7584 12.7905 44.6245 13.8311L40.917 40.461C40.7456 41.9112 40.1055 43.0302 38.9966 43.8178C37.8878 44.6059 36.6983 45 35.4284 45C34.6287 45 33.8686 44.8059 33.1479 44.4178C32.4268 44.0297 31.797 43.4714 31.2584 42.7427L23.7102 32.2566C23.5692 32.0738 23.3898 31.9214 23.172 31.7993C22.9538 31.6773 22.7075 31.6163 22.4331 31.6163C22.2407 31.6163 21.815 31.8738 21.156 32.3888L13.8086 42.5445C13.27 43.3172 12.6178 43.9196 11.8521 44.3518C11.0868 44.7839 10.282 45 9.43775 45C8.16778 45 6.98951 44.6018 5.90294 43.8053C4.81638 43.0093 4.18742 41.8725 4.01606 40.3949L0.375502 13.8311C0.241633 12.7905 0.145694 11.8797 0.0876839 11.0987C0.0292279 10.3176 0 9.70176 0 9.2511C0 6.69956 0.915662 4.51982 2.74699 2.71189C4.57787 0.903963 6.78581 0 9.37082 0C10.8224 0 12.0194 0.209251 12.9618 0.627753C13.9043 1.04626 14.8217 1.4978 15.7142 1.98238C16.6066 2.46696 17.5676 2.9185 18.5971 3.337C19.627 3.75551 20.9279 3.96476 22.5 3.96476C24.0895 3.96476 25.4032 3.75551 26.4411 3.337C27.4795 2.9185 28.4449 2.46696 29.3373 1.98238C30.2298 1.4978 31.1497 1.04626 32.0971 0.627753C33.0448 0.209251 34.2222 0 35.6292 0ZM35.6292 2.99934C34.6029 2.99934 33.7104 3.16608 32.9518 3.49956C32.1932 3.83348 31.3951 4.24273 30.5576 4.72731C29.2845 5.45242 28.0471 6.00639 26.8454 6.38921C25.6441 6.77247 24.1957 6.9641 22.5 6.9641C20.8387 6.9641 19.4186 6.77247 18.2396 6.38921C17.0602 6.00639 15.8253 5.45242 14.5348 4.72731C13.7146 4.24273 12.9054 3.83348 12.1071 3.49956C11.3092 3.16608 10.3971 2.99934 9.37082 2.99934C7.59929 2.99934 6.10085 3.60418 4.8755 4.81388C3.65016 6.02357 3.03748 7.50264 3.03748 9.2511C3.03748 9.60352 3.05979 10.1238 3.10442 10.8119C3.14904 11.4996 3.23829 12.3059 3.37215 13.2311L7.05355 39.9529C7.12584 40.5828 7.40651 41.0707 7.89558 41.4165C8.38465 41.7619 8.89871 41.9346 9.43775 41.9346C9.85631 41.9346 10.2269 41.8101 10.5495 41.5612C10.8722 41.3123 11.176 41.0117 11.4612 40.6593L18.6332 30.676C19.1 30.0289 19.6749 29.524 20.3581 29.1615C21.0413 28.7989 21.7552 28.6176 22.5 28.6176C23.2448 28.6176 23.9518 28.7989 24.6211 29.1615C25.2905 29.524 25.8585 30.0289 26.3253 30.676L33.6058 40.8575C33.8289 41.2099 34.1062 41.4885 34.4377 41.6934C34.7689 41.8982 35.1214 42.0007 35.4953 42.0007C36.0513 42.0007 36.5696 41.8211 37.0502 41.4621C37.5308 41.1031 37.8157 40.6355 37.905 40.0593L41.6278 13.2311C41.7617 12.3059 41.851 11.4996 41.8956 10.8119C41.9402 10.1238 41.9625 9.60352 41.9625 9.2511C41.9625 7.50264 41.3498 6.02357 40.1245 4.81388C38.8991 3.60418 37.4007 2.99934 35.6292 2.99934Z" fill="white"/>
</svg>
