<svg width="34" height="35" viewBox="0 0 34 35" fill="none" xmlns="http://www.w3.org/2000/svg">
<path d="M26.8075 0.25C28.7385 0.263 30.3878 0.950166 31.7555 2.3115C33.1235 3.67317 33.8075 5.31933 33.8075 7.25C33.8075 7.591 33.7857 8.057 33.742 8.648C33.6987 9.239 33.627 9.92817 33.527 10.7155L30.7575 30.8655C30.6295 31.9628 30.1513 32.8095 29.323 33.4055C28.4947 34.0018 27.6062 34.3 26.6575 34.3C26.0602 34.3 25.4923 34.1532 24.954 33.8595C24.4153 33.5658 23.9448 33.1433 23.5425 32.592L17.904 24.6575C17.7987 24.5192 17.6647 24.4038 17.502 24.3115C17.339 24.2192 17.155 24.173 16.95 24.173C16.8063 24.173 16.4883 24.3678 15.996 24.7575L10.5075 32.442C10.1052 33.0267 9.618 33.4825 9.046 33.8095C8.47434 34.1365 7.87317 34.3 7.2425 34.3C6.29384 34.3 5.41367 33.9987 4.602 33.396C3.79034 32.7937 3.3205 31.9335 3.1925 30.8155L0.473005 10.7155C0.373005 9.92817 0.301338 9.239 0.258005 8.648C0.214338 8.057 0.192505 7.591 0.192505 7.25C0.192505 5.31933 0.876504 3.67 2.2445 2.302C3.61217 0.933999 5.2615 0.25 7.1925 0.25C8.27684 0.25 9.171 0.408333 9.875 0.725C10.579 1.04167 11.2643 1.38333 11.931 1.75C12.5977 2.11667 13.3155 2.45833 14.0845 2.775C14.8538 3.09167 15.8257 3.25 17 3.25C18.1873 3.25 19.1687 3.09167 19.944 2.775C20.7197 2.45833 21.4408 2.11667 22.1075 1.75C22.7742 1.38333 23.4613 1.04167 24.169 0.725C24.877 0.408333 25.7565 0.25 26.8075 0.25ZM26.8075 2.5195C26.0408 2.5195 25.3742 2.64567 24.8075 2.898C24.2408 3.15067 23.6447 3.46033 23.019 3.827C22.068 4.37567 21.1437 4.79483 20.246 5.0845C19.3487 5.3745 18.2667 5.5195 17 5.5195C15.759 5.5195 14.6982 5.3745 13.8175 5.0845C12.9365 4.79483 12.014 4.37567 11.05 3.827C10.4373 3.46033 9.83284 3.15067 9.2365 2.898C8.6405 2.64567 7.95917 2.5195 7.1925 2.5195C5.86917 2.5195 4.74984 2.97717 3.8345 3.8925C2.91917 4.80783 2.4615 5.927 2.4615 7.25C2.4615 7.51667 2.47817 7.91033 2.5115 8.431C2.54484 8.95133 2.6115 9.5615 2.7115 10.2615L5.4615 30.481C5.5155 30.9577 5.72517 31.3268 6.0905 31.5885C6.45584 31.8498 6.83984 31.9805 7.2425 31.9805C7.55517 31.9805 7.832 31.8863 8.073 31.698C8.314 31.5097 8.541 31.2822 8.754 31.0155L14.1115 23.4615C14.4602 22.9718 14.8897 22.5898 15.4 22.3155C15.9103 22.0412 16.4437 21.904 17 21.904C17.5563 21.904 18.0845 22.0412 18.5845 22.3155C19.0845 22.5898 19.5088 22.9718 19.8575 23.4615L25.296 31.1655C25.4627 31.4322 25.6698 31.643 25.9175 31.798C26.1648 31.953 26.4282 32.0305 26.7075 32.0305C27.1228 32.0305 27.51 31.8947 27.869 31.623C28.228 31.3513 28.4408 30.9975 28.5075 30.5615L31.2885 10.2615C31.3885 9.5615 31.4552 8.95133 31.4885 8.431C31.5218 7.91033 31.5385 7.51667 31.5385 7.25C31.5385 5.927 31.0808 4.80783 30.1655 3.8925C29.2502 2.97717 28.1308 2.5195 26.8075 2.5195Z" fill="white"/>
</svg>
